<mxfile host="Electron" agent="Mozilla/5.0 (Windows NT 10.0; Win64; x64) AppleWebKit/537.36 (KHTML, like Gecko) draw.io/24.7.17 Chrome/128.0.6613.36 Electron/32.0.1 Safari/537.36" version="24.7.17">
  <diagram name="Page-1" id="XvfE8XYT93udBlJ4UVfs">
    <mxGraphModel dx="1434" dy="884" grid="1" gridSize="10" guides="1" tooltips="1" connect="1" arrows="1" fold="1" page="1" pageScale="1" pageWidth="850" pageHeight="1100" math="0" shadow="0">
      <root>
        <mxCell id="0" />
        <mxCell id="1" parent="0" />
        <mxCell id="3DmNPTJmgvK99TdIpeQO-15" value="" style="rounded=0;whiteSpace=wrap;html=1;dashed=1;" parent="1" vertex="1">
          <mxGeometry x="160" y="590" width="500" height="128.75" as="geometry" />
        </mxCell>
        <mxCell id="3DmNPTJmgvK99TdIpeQO-1" value="Region" style="points=[[0,0],[0.25,0],[0.5,0],[0.75,0],[1,0],[1,0.25],[1,0.5],[1,0.75],[1,1],[0.75,1],[0.5,1],[0.25,1],[0,1],[0,0.75],[0,0.5],[0,0.25]];outlineConnect=0;gradientColor=none;html=1;whiteSpace=wrap;fontSize=12;fontStyle=0;container=1;pointerEvents=0;collapsible=0;recursiveResize=0;shape=mxgraph.aws4.group;grIcon=mxgraph.aws4.group_region;strokeColor=#00A4A6;fillColor=none;verticalAlign=top;align=left;spacingLeft=30;fontColor=#147EBA;dashed=1;" parent="1" vertex="1">
          <mxGeometry x="240" width="1450" height="580" as="geometry" />
        </mxCell>
        <mxCell id="3DmNPTJmgvK99TdIpeQO-2" value="VPC" style="points=[[0,0],[0.25,0],[0.5,0],[0.75,0],[1,0],[1,0.25],[1,0.5],[1,0.75],[1,1],[0.75,1],[0.5,1],[0.25,1],[0,1],[0,0.75],[0,0.5],[0,0.25]];outlineConnect=0;gradientColor=none;html=1;whiteSpace=wrap;fontSize=12;fontStyle=0;container=1;pointerEvents=0;collapsible=0;recursiveResize=0;shape=mxgraph.aws4.group;grIcon=mxgraph.aws4.group_vpc2;strokeColor=#8C4FFF;fillColor=none;verticalAlign=top;align=left;spacingLeft=30;fontColor=#AAB7B8;dashed=0;" parent="3DmNPTJmgvK99TdIpeQO-1" vertex="1">
          <mxGeometry x="30" y="40" width="1410" height="540" as="geometry" />
        </mxCell>
        <mxCell id="3DmNPTJmgvK99TdIpeQO-13" value="EKS" style="points=[[0,0],[0.25,0],[0.5,0],[0.75,0],[1,0],[1,0.25],[1,0.5],[1,0.75],[1,1],[0.75,1],[0.5,1],[0.25,1],[0,1],[0,0.75],[0,0.5],[0,0.25]];outlineConnect=0;gradientColor=none;html=1;whiteSpace=wrap;fontSize=12;fontStyle=0;container=1;pointerEvents=0;collapsible=0;recursiveResize=0;shape=mxgraph.aws4.group;grIcon=mxgraph.aws4.group_ec2_instance_contents;strokeColor=#D86613;fillColor=none;verticalAlign=top;align=left;spacingLeft=30;fontColor=#D86613;dashed=0;" parent="3DmNPTJmgvK99TdIpeQO-2" vertex="1">
          <mxGeometry x="100" y="10" width="190" height="380" as="geometry" />
        </mxCell>
        <mxCell id="3DmNPTJmgvK99TdIpeQO-36" value="" style="rounded=0;whiteSpace=wrap;html=1;dashed=1;strokeColor=#FF7F00;" parent="3DmNPTJmgvK99TdIpeQO-13" vertex="1">
          <mxGeometry x="29.5" y="70" width="120" height="290" as="geometry" />
        </mxCell>
        <mxCell id="3WPR9Mhlvj_q4YfWqOTq-42" value="" style="edgeStyle=orthogonalEdgeStyle;rounded=0;orthogonalLoop=1;jettySize=auto;html=1;" parent="3DmNPTJmgvK99TdIpeQO-13" source="3DmNPTJmgvK99TdIpeQO-17" target="3DmNPTJmgvK99TdIpeQO-35" edge="1">
          <mxGeometry relative="1" as="geometry" />
        </mxCell>
        <mxCell id="3DmNPTJmgvK99TdIpeQO-17" value="&lt;span style=&quot;color: rgb(242, 231, 234);&quot;&gt;Produto&amp;nbsp;&lt;/span&gt;&lt;font color=&quot;#f2e7ea&quot;&gt;APP&lt;/font&gt;" style="sketch=0;outlineConnect=0;fontColor=#232F3E;gradientColor=none;fillColor=#ED7100;strokeColor=none;dashed=0;verticalLabelPosition=bottom;verticalAlign=top;align=center;html=1;fontSize=12;fontStyle=0;aspect=fixed;pointerEvents=1;shape=mxgraph.aws4.container_1;" parent="3DmNPTJmgvK99TdIpeQO-13" vertex="1">
          <mxGeometry x="65.5" y="290" width="48" height="31" as="geometry" />
        </mxCell>
        <mxCell id="3DmNPTJmgvK99TdIpeQO-18" value="&lt;br&gt;&lt;span style=&quot;color: rgb(242, 231, 234); font-family: Helvetica; font-size: 12px; font-style: normal; font-variant-ligatures: normal; font-variant-caps: normal; font-weight: 400; letter-spacing: normal; orphans: 2; text-align: center; text-indent: 0px; text-transform: none; widows: 2; word-spacing: 0px; -webkit-text-stroke-width: 0px; white-space: nowrap; background-color: rgb(27, 29, 30); text-decoration-thickness: initial; text-decoration-style: initial; text-decoration-color: initial; display: inline !important; float: none;&quot;&gt;Produto SVC&lt;/span&gt;&lt;div&gt;&lt;br/&gt;&lt;/div&gt;" style="sketch=0;outlineConnect=0;fontColor=#232F3E;gradientColor=none;fillColor=#ED7100;strokeColor=none;dashed=0;verticalLabelPosition=bottom;verticalAlign=top;align=center;html=1;fontSize=12;fontStyle=0;aspect=fixed;pointerEvents=1;shape=mxgraph.aws4.ecs_service;spacingBottom=30;" parent="3DmNPTJmgvK99TdIpeQO-13" vertex="1">
          <mxGeometry x="70" y="100" width="39" height="48" as="geometry" />
        </mxCell>
        <mxCell id="3DmNPTJmgvK99TdIpeQO-35" value="&lt;span style=&quot;color: rgb(242, 231, 234);&quot;&gt;Produto HPA&lt;/span&gt;" style="sketch=0;outlineConnect=0;fontColor=#232F3E;gradientColor=none;fillColor=#ED7100;strokeColor=none;dashed=0;verticalLabelPosition=bottom;verticalAlign=top;align=center;html=1;fontSize=12;fontStyle=0;aspect=fixed;pointerEvents=1;shape=mxgraph.aws4.auto_scaling2;" parent="3DmNPTJmgvK99TdIpeQO-13" vertex="1">
          <mxGeometry x="65.5" y="210" width="48" height="48" as="geometry" />
        </mxCell>
        <mxCell id="3DmNPTJmgvK99TdIpeQO-41" style="edgeStyle=orthogonalEdgeStyle;rounded=0;orthogonalLoop=1;jettySize=auto;html=1;" parent="3DmNPTJmgvK99TdIpeQO-2" source="3DmNPTJmgvK99TdIpeQO-38" target="3DmNPTJmgvK99TdIpeQO-18" edge="1">
          <mxGeometry relative="1" as="geometry">
            <Array as="points">
              <mxPoint x="40" y="130" />
            </Array>
          </mxGeometry>
        </mxCell>
        <mxCell id="3DmNPTJmgvK99TdIpeQO-38" value="&lt;font color=&quot;#ebebeb&quot;&gt;Load Balancer&lt;/font&gt;" style="sketch=0;outlineConnect=0;fontColor=#232F3E;gradientColor=none;fillColor=#8C4FFF;strokeColor=none;dashed=0;verticalLabelPosition=bottom;verticalAlign=top;align=center;html=1;fontSize=12;fontStyle=0;aspect=fixed;pointerEvents=1;shape=mxgraph.aws4.network_load_balancer;" parent="3DmNPTJmgvK99TdIpeQO-2" vertex="1">
          <mxGeometry x="10" y="210" width="60" height="60" as="geometry" />
        </mxCell>
        <mxCell id="i-C-EQaALfgo3qTTFVs5-3" style="edgeStyle=orthogonalEdgeStyle;rounded=0;orthogonalLoop=1;jettySize=auto;html=1;" parent="3DmNPTJmgvK99TdIpeQO-2" source="qOjPwUeSn8Xa0uILYOsi-2" target="i-C-EQaALfgo3qTTFVs5-2" edge="1">
          <mxGeometry relative="1" as="geometry" />
        </mxCell>
        <mxCell id="qOjPwUeSn8Xa0uILYOsi-2" value="&lt;span style=&quot;color: rgb(242, 231, 234);&quot;&gt;Produto&amp;nbsp;&lt;/span&gt;DB&lt;br&gt;PostregesSQL" style="outlineConnect=0;dashed=0;verticalLabelPosition=bottom;verticalAlign=top;align=center;html=1;shape=mxgraph.aws3.rds;fillColor=#2E73B8;gradientColor=none;" parent="3DmNPTJmgvK99TdIpeQO-2" vertex="1">
          <mxGeometry x="350" y="275" width="72" height="81" as="geometry" />
        </mxCell>
        <mxCell id="qOjPwUeSn8Xa0uILYOsi-3" style="edgeStyle=orthogonalEdgeStyle;rounded=0;orthogonalLoop=1;jettySize=auto;html=1;" parent="3DmNPTJmgvK99TdIpeQO-2" source="3DmNPTJmgvK99TdIpeQO-17" target="qOjPwUeSn8Xa0uILYOsi-2" edge="1">
          <mxGeometry relative="1" as="geometry" />
        </mxCell>
        <mxCell id="i-C-EQaALfgo3qTTFVs5-2" value="Produtos&lt;div&gt;Redis&lt;/div&gt;" style="image;sketch=0;aspect=fixed;html=1;points=[];align=center;fontSize=12;image=img/lib/mscae/Cache_Redis_Product.svg;" parent="3DmNPTJmgvK99TdIpeQO-2" vertex="1">
          <mxGeometry x="344.33" y="120" width="83.34" height="70" as="geometry" />
        </mxCell>
        <mxCell id="3WPR9Mhlvj_q4YfWqOTq-7" value="&lt;span style=&quot;color: rgb(242, 231, 234);&quot;&gt;Pedido DB&lt;/span&gt;&lt;div&gt;PostregesSQL&lt;/div&gt;" style="outlineConnect=0;dashed=0;verticalLabelPosition=bottom;verticalAlign=top;align=center;html=1;shape=mxgraph.aws3.rds;fillColor=#2E73B8;gradientColor=none;" parent="3DmNPTJmgvK99TdIpeQO-2" vertex="1">
          <mxGeometry x="700" y="275" width="72" height="81" as="geometry" />
        </mxCell>
        <mxCell id="3WPR9Mhlvj_q4YfWqOTq-15" value="EKS" style="points=[[0,0],[0.25,0],[0.5,0],[0.75,0],[1,0],[1,0.25],[1,0.5],[1,0.75],[1,1],[0.75,1],[0.5,1],[0.25,1],[0,1],[0,0.75],[0,0.5],[0,0.25]];outlineConnect=0;gradientColor=none;html=1;whiteSpace=wrap;fontSize=12;fontStyle=0;container=1;pointerEvents=0;collapsible=0;recursiveResize=0;shape=mxgraph.aws4.group;grIcon=mxgraph.aws4.group_ec2_instance_contents;strokeColor=#D86613;fillColor=none;verticalAlign=top;align=left;spacingLeft=30;fontColor=#D86613;dashed=0;" parent="3DmNPTJmgvK99TdIpeQO-2" vertex="1">
          <mxGeometry x="850" y="15" width="170" height="380" as="geometry" />
        </mxCell>
        <mxCell id="3WPR9Mhlvj_q4YfWqOTq-16" value="" style="rounded=0;whiteSpace=wrap;html=1;dashed=1;strokeColor=#FF7F00;" parent="3WPR9Mhlvj_q4YfWqOTq-15" vertex="1">
          <mxGeometry x="29.5" y="70" width="120" height="290" as="geometry" />
        </mxCell>
        <mxCell id="3WPR9Mhlvj_q4YfWqOTq-17" value="&lt;span style=&quot;color: rgb(242, 231, 234);&quot;&gt;Cliente&amp;nbsp;&amp;nbsp;&lt;/span&gt;&lt;font color=&quot;#f2e7ea&quot;&gt;APP&lt;/font&gt;" style="sketch=0;outlineConnect=0;fontColor=#232F3E;gradientColor=none;fillColor=#ED7100;strokeColor=none;dashed=0;verticalLabelPosition=bottom;verticalAlign=top;align=center;html=1;fontSize=12;fontStyle=0;aspect=fixed;pointerEvents=1;shape=mxgraph.aws4.container_1;" parent="3WPR9Mhlvj_q4YfWqOTq-15" vertex="1">
          <mxGeometry x="65.5" y="290" width="48" height="31" as="geometry" />
        </mxCell>
        <mxCell id="3WPR9Mhlvj_q4YfWqOTq-18" value="&lt;br&gt;&lt;span style=&quot;color: rgb(242, 231, 234); font-family: Helvetica; font-size: 12px; font-style: normal; font-variant-ligatures: normal; font-variant-caps: normal; font-weight: 400; letter-spacing: normal; orphans: 2; text-align: center; text-indent: 0px; text-transform: none; widows: 2; word-spacing: 0px; -webkit-text-stroke-width: 0px; white-space: nowrap; background-color: rgb(27, 29, 30); text-decoration-thickness: initial; text-decoration-style: initial; text-decoration-color: initial; display: inline !important; float: none;&quot;&gt;Cliente SVC&lt;/span&gt;&lt;div&gt;&lt;br/&gt;&lt;/div&gt;" style="sketch=0;outlineConnect=0;fontColor=#232F3E;gradientColor=none;fillColor=#ED7100;strokeColor=none;dashed=0;verticalLabelPosition=bottom;verticalAlign=top;align=center;html=1;fontSize=12;fontStyle=0;aspect=fixed;pointerEvents=1;shape=mxgraph.aws4.ecs_service;spacingBottom=30;" parent="3WPR9Mhlvj_q4YfWqOTq-15" vertex="1">
          <mxGeometry x="70" y="100" width="39" height="48" as="geometry" />
        </mxCell>
        <mxCell id="3WPR9Mhlvj_q4YfWqOTq-19" value="&lt;span style=&quot;color: rgb(242, 231, 234);&quot;&gt;Cliente&amp;nbsp;&lt;/span&gt;&lt;font color=&quot;#e3d8d4&quot;&gt;HPA&lt;/font&gt;" style="sketch=0;outlineConnect=0;fontColor=#232F3E;gradientColor=none;fillColor=#ED7100;strokeColor=none;dashed=0;verticalLabelPosition=bottom;verticalAlign=top;align=center;html=1;fontSize=12;fontStyle=0;aspect=fixed;pointerEvents=1;shape=mxgraph.aws4.auto_scaling2;" parent="3WPR9Mhlvj_q4YfWqOTq-15" vertex="1">
          <mxGeometry x="65.5" y="210" width="48" height="48" as="geometry" />
        </mxCell>
        <mxCell id="3WPR9Mhlvj_q4YfWqOTq-20" value="EKS" style="points=[[0,0],[0.25,0],[0.5,0],[0.75,0],[1,0],[1,0.25],[1,0.5],[1,0.75],[1,1],[0.75,1],[0.5,1],[0.25,1],[0,1],[0,0.75],[0,0.5],[0,0.25]];outlineConnect=0;gradientColor=none;html=1;whiteSpace=wrap;fontSize=12;fontStyle=0;container=1;pointerEvents=0;collapsible=0;recursiveResize=0;shape=mxgraph.aws4.group;grIcon=mxgraph.aws4.group_ec2_instance_contents;strokeColor=#D86613;fillColor=none;verticalAlign=top;align=left;spacingLeft=30;fontColor=#D86613;dashed=0;" parent="3DmNPTJmgvK99TdIpeQO-2" vertex="1">
          <mxGeometry x="1140" y="15" width="170" height="380" as="geometry" />
        </mxCell>
        <mxCell id="3WPR9Mhlvj_q4YfWqOTq-21" value="" style="rounded=0;whiteSpace=wrap;html=1;dashed=1;strokeColor=#FF7F00;" parent="3WPR9Mhlvj_q4YfWqOTq-20" vertex="1">
          <mxGeometry x="29.5" y="70" width="120" height="290" as="geometry" />
        </mxCell>
        <mxCell id="3WPR9Mhlvj_q4YfWqOTq-22" value="&lt;font color=&quot;#f2e7ea&quot;&gt;Pagamento APP&lt;/font&gt;" style="sketch=0;outlineConnect=0;fontColor=#232F3E;gradientColor=none;fillColor=#ED7100;strokeColor=none;dashed=0;verticalLabelPosition=bottom;verticalAlign=top;align=center;html=1;fontSize=12;fontStyle=0;aspect=fixed;pointerEvents=1;shape=mxgraph.aws4.container_1;" parent="3WPR9Mhlvj_q4YfWqOTq-20" vertex="1">
          <mxGeometry x="65.5" y="290" width="48" height="31" as="geometry" />
        </mxCell>
        <mxCell id="3WPR9Mhlvj_q4YfWqOTq-23" value="&lt;br&gt;&lt;span style=&quot;color: rgb(242, 231, 234); font-family: Helvetica; font-size: 12px; font-style: normal; font-variant-ligatures: normal; font-variant-caps: normal; font-weight: 400; letter-spacing: normal; orphans: 2; text-align: center; text-indent: 0px; text-transform: none; widows: 2; word-spacing: 0px; -webkit-text-stroke-width: 0px; white-space: nowrap; background-color: rgb(27, 29, 30); text-decoration-thickness: initial; text-decoration-style: initial; text-decoration-color: initial; display: inline !important; float: none;&quot;&gt;Pagamento SVC&lt;/span&gt;&lt;div&gt;&lt;br/&gt;&lt;/div&gt;" style="sketch=0;outlineConnect=0;fontColor=#232F3E;gradientColor=none;fillColor=#ED7100;strokeColor=none;dashed=0;verticalLabelPosition=bottom;verticalAlign=top;align=center;html=1;fontSize=12;fontStyle=0;aspect=fixed;pointerEvents=1;shape=mxgraph.aws4.ecs_service;spacingBottom=30;" parent="3WPR9Mhlvj_q4YfWqOTq-20" vertex="1">
          <mxGeometry x="70" y="100" width="39" height="48" as="geometry" />
        </mxCell>
        <mxCell id="3WPR9Mhlvj_q4YfWqOTq-24" value="&lt;font color=&quot;#e3d8d4&quot;&gt;Pagamento HPA&lt;/font&gt;" style="sketch=0;outlineConnect=0;fontColor=#232F3E;gradientColor=none;fillColor=#ED7100;strokeColor=none;dashed=0;verticalLabelPosition=bottom;verticalAlign=top;align=center;html=1;fontSize=12;fontStyle=0;aspect=fixed;pointerEvents=1;shape=mxgraph.aws4.auto_scaling2;" parent="3WPR9Mhlvj_q4YfWqOTq-20" vertex="1">
          <mxGeometry x="65.5" y="210" width="48" height="48" as="geometry" />
        </mxCell>
        <mxCell id="3WPR9Mhlvj_q4YfWqOTq-26" style="edgeStyle=orthogonalEdgeStyle;rounded=0;orthogonalLoop=1;jettySize=auto;html=1;" parent="3DmNPTJmgvK99TdIpeQO-2" source="3DmNPTJmgvK99TdIpeQO-38" target="3WPR9Mhlvj_q4YfWqOTq-18" edge="1">
          <mxGeometry relative="1" as="geometry">
            <Array as="points">
              <mxPoint x="40" y="400" />
              <mxPoint x="830" y="400" />
              <mxPoint x="830" y="139" />
            </Array>
          </mxGeometry>
        </mxCell>
        <mxCell id="3WPR9Mhlvj_q4YfWqOTq-27" style="edgeStyle=orthogonalEdgeStyle;rounded=0;orthogonalLoop=1;jettySize=auto;html=1;" parent="3DmNPTJmgvK99TdIpeQO-2" source="3DmNPTJmgvK99TdIpeQO-38" target="3WPR9Mhlvj_q4YfWqOTq-23" edge="1">
          <mxGeometry relative="1" as="geometry">
            <Array as="points">
              <mxPoint x="40" y="420" />
              <mxPoint x="1120" y="420" />
              <mxPoint x="1120" y="139" />
            </Array>
          </mxGeometry>
        </mxCell>
        <mxCell id="3WPR9Mhlvj_q4YfWqOTq-38" value="&lt;font color=&quot;#fcf4f5&quot;&gt;Cliente&lt;/font&gt;&lt;div&gt;&lt;font color=&quot;#fcf4f5&quot;&gt;DynamoDB&lt;/font&gt;&lt;/div&gt;" style="sketch=0;points=[[0,0,0],[0.25,0,0],[0.5,0,0],[0.75,0,0],[1,0,0],[0,1,0],[0.25,1,0],[0.5,1,0],[0.75,1,0],[1,1,0],[0,0.25,0],[0,0.5,0],[0,0.75,0],[1,0.25,0],[1,0.5,0],[1,0.75,0]];outlineConnect=0;fontColor=#232F3E;fillColor=#C925D1;strokeColor=#ffffff;dashed=0;verticalLabelPosition=bottom;verticalAlign=top;align=center;html=1;fontSize=12;fontStyle=0;aspect=fixed;shape=mxgraph.aws4.resourceIcon;resIcon=mxgraph.aws4.dynamodb;" parent="3DmNPTJmgvK99TdIpeQO-2" vertex="1">
          <mxGeometry x="1030" y="281.5" width="78" height="78" as="geometry" />
        </mxCell>
        <mxCell id="3WPR9Mhlvj_q4YfWqOTq-39" style="edgeStyle=orthogonalEdgeStyle;rounded=0;orthogonalLoop=1;jettySize=auto;html=1;" parent="3DmNPTJmgvK99TdIpeQO-2" source="3WPR9Mhlvj_q4YfWqOTq-17" target="3WPR9Mhlvj_q4YfWqOTq-38" edge="1">
          <mxGeometry relative="1" as="geometry" />
        </mxCell>
        <mxCell id="3WPR9Mhlvj_q4YfWqOTq-40" value="Pagamento&lt;div&gt;DynamoDB&lt;/div&gt;" style="sketch=0;points=[[0,0,0],[0.25,0,0],[0.5,0,0],[0.75,0,0],[1,0,0],[0,1,0],[0.25,1,0],[0.5,1,0],[0.75,1,0],[1,1,0],[0,0.25,0],[0,0.5,0],[0,0.75,0],[1,0.25,0],[1,0.5,0],[1,0.75,0]];outlineConnect=0;fontColor=#FFFFFF;fillColor=#C925D1;strokeColor=#ffffff;dashed=0;verticalLabelPosition=bottom;verticalAlign=top;align=center;html=1;fontSize=12;fontStyle=0;aspect=fixed;shape=mxgraph.aws4.resourceIcon;resIcon=mxgraph.aws4.dynamodb;" parent="3DmNPTJmgvK99TdIpeQO-2" vertex="1">
          <mxGeometry x="1320" y="281.5" width="78" height="78" as="geometry" />
        </mxCell>
        <mxCell id="3WPR9Mhlvj_q4YfWqOTq-41" style="edgeStyle=orthogonalEdgeStyle;rounded=0;orthogonalLoop=1;jettySize=auto;html=1;" parent="3DmNPTJmgvK99TdIpeQO-2" source="3WPR9Mhlvj_q4YfWqOTq-22" target="3WPR9Mhlvj_q4YfWqOTq-40" edge="1">
          <mxGeometry relative="1" as="geometry" />
        </mxCell>
        <mxCell id="ggTSPxP4Z_1TptvO8F0u-1" value="&lt;font color=&quot;#ffffff&quot;&gt;pagamento-efetuado&lt;/font&gt;" style="sketch=0;points=[[0,0,0],[0.25,0,0],[0.5,0,0],[0.75,0,0],[1,0,0],[0,1,0],[0.25,1,0],[0.5,1,0],[0.75,1,0],[1,1,0],[0,0.25,0],[0,0.5,0],[0,0.75,0],[1,0.25,0],[1,0.5,0],[1,0.75,0]];outlineConnect=0;fontColor=#232F3E;fillColor=#E7157B;strokeColor=#ffffff;dashed=0;verticalLabelPosition=bottom;verticalAlign=top;align=center;html=1;fontSize=12;fontStyle=0;aspect=fixed;shape=mxgraph.aws4.resourceIcon;resIcon=mxgraph.aws4.sqs;" vertex="1" parent="3DmNPTJmgvK99TdIpeQO-2">
          <mxGeometry x="710" y="440" width="78" height="78" as="geometry" />
        </mxCell>
        <mxCell id="ggTSPxP4Z_1TptvO8F0u-4" style="edgeStyle=orthogonalEdgeStyle;rounded=0;orthogonalLoop=1;jettySize=auto;html=1;" edge="1" parent="3DmNPTJmgvK99TdIpeQO-2" source="3WPR9Mhlvj_q4YfWqOTq-22" target="ggTSPxP4Z_1TptvO8F0u-1">
          <mxGeometry relative="1" as="geometry">
            <Array as="points">
              <mxPoint x="1150" y="321" />
              <mxPoint x="1150" y="470" />
            </Array>
          </mxGeometry>
        </mxCell>
        <mxCell id="ggTSPxP4Z_1TptvO8F0u-6" value="pagamento efetuado" style="edgeLabel;html=1;align=center;verticalAlign=middle;resizable=0;points=[];" vertex="1" connectable="0" parent="ggTSPxP4Z_1TptvO8F0u-4">
          <mxGeometry x="0.1781" y="1" relative="1" as="geometry">
            <mxPoint as="offset" />
          </mxGeometry>
        </mxCell>
        <mxCell id="3DmNPTJmgvK99TdIpeQO-8" style="edgeStyle=orthogonalEdgeStyle;rounded=0;orthogonalLoop=1;jettySize=auto;html=1;" parent="1" source="3DmNPTJmgvK99TdIpeQO-3" target="3DmNPTJmgvK99TdIpeQO-7" edge="1">
          <mxGeometry relative="1" as="geometry">
            <mxPoint x="340" y="650" as="targetPoint" />
          </mxGeometry>
        </mxCell>
        <mxCell id="3DmNPTJmgvK99TdIpeQO-3" value="Base de Código" style="dashed=0;outlineConnect=0;html=1;align=center;labelPosition=center;verticalLabelPosition=bottom;verticalAlign=top;shape=mxgraph.weblogos.github" parent="1" vertex="1">
          <mxGeometry x="180" y="611.25" width="75" height="75" as="geometry" />
        </mxCell>
        <mxCell id="3DmNPTJmgvK99TdIpeQO-11" style="edgeStyle=orthogonalEdgeStyle;rounded=0;orthogonalLoop=1;jettySize=auto;html=1;" parent="1" source="3DmNPTJmgvK99TdIpeQO-4" target="3DmNPTJmgvK99TdIpeQO-3" edge="1">
          <mxGeometry relative="1" as="geometry" />
        </mxCell>
        <mxCell id="3DmNPTJmgvK99TdIpeQO-4" value="DEV" style="shape=umlActor;verticalLabelPosition=bottom;verticalAlign=top;html=1;outlineConnect=0;" parent="1" vertex="1">
          <mxGeometry x="50" y="618.75" width="30" height="60" as="geometry" />
        </mxCell>
        <mxCell id="3DmNPTJmgvK99TdIpeQO-34" style="edgeStyle=orthogonalEdgeStyle;rounded=0;orthogonalLoop=1;jettySize=auto;html=1;" parent="1" source="i-C-EQaALfgo3qTTFVs5-4" target="3DmNPTJmgvK99TdIpeQO-17" edge="1">
          <mxGeometry relative="1" as="geometry">
            <Array as="points">
              <mxPoint x="577" y="570" />
              <mxPoint x="460" y="570" />
            </Array>
            <mxPoint x="577.3" y="610" as="sourcePoint" />
          </mxGeometry>
        </mxCell>
        <mxCell id="3DmNPTJmgvK99TdIpeQO-10" style="edgeStyle=orthogonalEdgeStyle;rounded=0;orthogonalLoop=1;jettySize=auto;html=1;" parent="1" source="3DmNPTJmgvK99TdIpeQO-7" target="i-C-EQaALfgo3qTTFVs5-4" edge="1">
          <mxGeometry relative="1" as="geometry">
            <mxPoint x="530" y="648.8" as="targetPoint" />
          </mxGeometry>
        </mxCell>
        <mxCell id="3DmNPTJmgvK99TdIpeQO-7" value="Github Action" style="shape=image;aspect=fixed;image=data:image/svg+xml,PHN2ZyByb2xlPSJpbWciIHZpZXdCb3g9IjAgMCAyNCAyNCIgeG1sbnM9Imh0dHA6Ly93d3cudzMub3JnLzIwMDAvc3ZnIj48dGl0bGU+R2l0SHViIEFjdGlvbnMgaWNvbjwvdGl0bGU+PHBhdGggZD0iTTEwLjk4NCAxMy44MzZhLjUuNSAwIDAgMS0uMzUzLS4xNDZsLS43NDUtLjc0M2EuNS41IDAgMSAxIC43MDYtLjcwOGwuMzkyLjM5MSAxLjE4MS0xLjE4YS41LjUgMCAwIDEgLjcwOC43MDdsLTEuNTM1IDEuNTMzYS41MDQuNTA0IDAgMCAxLS4zNTQuMTQ2em05LjM1My0uMTQ3bDEuNTM0LTEuNTMyYS41LjUgMCAwIDAtLjcwNy0uNzA3bC0xLjE4MSAxLjE4LS4zOTItLjM5MWEuNS41IDAgMSAwLS43MDYuNzA4bC43NDYuNzQzYS40OTcuNDk3IDAgMCAwIC43MDYtLjAwMXpNNC41MjcgNy40NTJsMi41NTctMS41ODVBMSAxIDAgMCAwIDcuMDkgNC4xN0w0LjUzMyAyLjU2QTEgMSAwIDAgMCAzIDMuNDA2djMuMTk2YTEuMDAxIDEuMDAxIDAgMCAwIDEuNTI3Ljg1em0yLjAzLTIuNDM2TDQgNi42MDJWMy40MDZsMi41NTcgMS42MXpNMjQgMTIuNWMwIDEuOTMtMS41NyAzLjUtMy41IDMuNWEzLjUwMyAzLjUwMyAwIDAgMS0zLjQ2LTNoLTIuMDhhMy41MDMgMy41MDMgMCAwIDEtMy40NiAzIDMuNTAyIDMuNTAyIDAgMCAxLTMuNDYtM2gtLjU1OGMtLjk3MiAwLTEuODUtLjM5OS0yLjQ4Mi0xLjA0MlYxN2MwIDEuNjU0IDEuMzQ2IDMgMyAzaC4wNGMuMjQ0LTEuNjkzIDEuNy0zIDMuNDYtMyAxLjkzIDAgMy41IDEuNTcgMy41IDMuNVMxMy40MyAyNCAxMS41IDI0YTMuNTAyIDMuNTAyIDAgMCAxLTMuNDYtM0g4Yy0yLjIwNiAwLTQtMS43OTQtNC00VjkuODk5QTUuMDA4IDUuMDA4IDAgMCAxIDAgNWMwLTIuNzU3IDIuMjQzLTUgNS01czUgMi4yNDMgNSA1YTUuMDA1IDUuMDA1IDAgMCAxLTQuOTUyIDQuOTk4QTIuNDgyIDIuNDgyIDAgMCAwIDcuNDgyIDEyaC41NThjLjI0NC0xLjY5MyAxLjctMyAzLjQ2LTNhMy41MDIgMy41MDIgMCAwIDEgMy40NiAzaDIuMDhhMy41MDMgMy41MDMgMCAwIDEgMy40Ni0zYzEuOTMgMCAzLjUgMS41NyAzLjUgMy41em0tMTUgOGMwIDEuMzc4IDEuMTIyIDIuNSAyLjUgMi41czIuNS0xLjEyMiAyLjUtMi41LTEuMTIyLTIuNS0yLjUtMi41UzkgMTkuMTIyIDkgMjAuNXpNNSA5YzIuMjA2IDAgNC0xLjc5NCA0LTRTNy4yMDYgMSA1IDEgMSAyLjc5NCAxIDVzMS43OTQgNCA0IDR6bTkgMy41YzAtMS4zNzgtMS4xMjItMi41LTIuNS0yLjVTOSAxMS4xMjIgOSAxMi41czEuMTIyIDIuNSAyLjUgMi41IDIuNS0xLjEyMiAyLjUtMi41em05IDBjMC0xLjM3OC0xLjEyMi0yLjUtMi41LTIuNVMxOCAxMS4xMjIgMTggMTIuNXMxLjEyMiAyLjUgMi41IDIuNSAyLjUtMS4xMjIgMi41LTIuNXptLTEzIDhhLjUuNSAwIDEgMCAxIDAgLjUuNSAwIDAgMC0xIDB6bTIgMGEuNS41IDAgMSAwIDEgMCAuNS41IDAgMCAwLTEgMHptMTIgMGMwIDEuOTMtMS41NyAzLjUtMy41IDMuNWEzLjUwMyAzLjUwMyAwIDAgMS0zLjQ2LTMuMDAyYy0uMDA3LjAwMS0uMDEzLjAwNS0uMDIxLjAwNWwtLjUwNi4wMTdoLS4wMTdhLjUuNSAwIDAgMS0uMDE2LS45OTlsLjUwNi0uMDE3Yy4wMTgtLjAwMi4wMzUuMDA2LjA1Mi4wMDdBMy41MDMgMy41MDMgMCAwIDEgMjAuNSAxN2MxLjkzIDAgMy41IDEuNTcgMy41IDMuNXptLTEgMGMwLTEuMzc4LTEuMTIyLTIuNS0yLjUtMi41UzE4IDE5LjEyMiAxOCAyMC41czEuMTIyIDIuNSAyLjUgMi41IDIuNS0xLjEyMiAyLjUtMi41eiIvPjwvc3ZnPg==;verticalAlign=bottom;spacingLeft=0;spacingBottom=-20;" parent="1" vertex="1">
          <mxGeometry x="350" y="603.75" width="90" height="90" as="geometry" />
        </mxCell>
        <mxCell id="3DmNPTJmgvK99TdIpeQO-14" value="Usuário" style="shape=umlActor;verticalLabelPosition=bottom;verticalAlign=top;html=1;outlineConnect=0;" parent="1" vertex="1">
          <mxGeometry x="36" y="70" width="30" height="60" as="geometry" />
        </mxCell>
        <mxCell id="3DmNPTJmgvK99TdIpeQO-27" style="edgeStyle=orthogonalEdgeStyle;rounded=0;orthogonalLoop=1;jettySize=auto;html=1;" parent="1" source="3DmNPTJmgvK99TdIpeQO-24" target="3DmNPTJmgvK99TdIpeQO-26" edge="1">
          <mxGeometry relative="1" as="geometry" />
        </mxCell>
        <mxCell id="3DmNPTJmgvK99TdIpeQO-24" value="&lt;font color=&quot;#cccaca&quot;&gt;DNS&lt;/font&gt;" style="sketch=0;points=[[0,0,0],[0.25,0,0],[0.5,0,0],[0.75,0,0],[1,0,0],[0,1,0],[0.25,1,0],[0.5,1,0],[0.75,1,0],[1,1,0],[0,0.25,0],[0,0.5,0],[0,0.75,0],[1,0.25,0],[1,0.5,0],[1,0.75,0]];outlineConnect=0;fontColor=#232F3E;fillColor=#8C4FFF;strokeColor=#ffffff;dashed=0;verticalLabelPosition=bottom;verticalAlign=top;align=center;html=1;fontSize=12;fontStyle=0;aspect=fixed;shape=mxgraph.aws4.resourceIcon;resIcon=mxgraph.aws4.route_53;" parent="1" vertex="1">
          <mxGeometry x="21" y="270" width="60" height="60" as="geometry" />
        </mxCell>
        <mxCell id="3DmNPTJmgvK99TdIpeQO-25" style="edgeStyle=orthogonalEdgeStyle;rounded=0;orthogonalLoop=1;jettySize=auto;html=1;entryX=0.5;entryY=0;entryDx=0;entryDy=0;entryPerimeter=0;" parent="1" source="3DmNPTJmgvK99TdIpeQO-14" target="3DmNPTJmgvK99TdIpeQO-24" edge="1">
          <mxGeometry relative="1" as="geometry" />
        </mxCell>
        <mxCell id="3DmNPTJmgvK99TdIpeQO-40" style="edgeStyle=orthogonalEdgeStyle;rounded=0;orthogonalLoop=1;jettySize=auto;html=1;" parent="1" source="3DmNPTJmgvK99TdIpeQO-26" target="3DmNPTJmgvK99TdIpeQO-38" edge="1">
          <mxGeometry relative="1" as="geometry" />
        </mxCell>
        <mxCell id="3DmNPTJmgvK99TdIpeQO-26" value="Gateway" style="outlineConnect=0;dashed=0;verticalLabelPosition=bottom;verticalAlign=top;align=center;html=1;shape=mxgraph.aws3.api_gateway;fillColor=#D9A741;gradientColor=none;" parent="1" vertex="1">
          <mxGeometry x="150" y="266.25" width="50" height="67.5" as="geometry" />
        </mxCell>
        <mxCell id="3WPR9Mhlvj_q4YfWqOTq-31" style="edgeStyle=orthogonalEdgeStyle;rounded=0;orthogonalLoop=1;jettySize=auto;html=1;" parent="1" source="i-C-EQaALfgo3qTTFVs5-4" target="3WPR9Mhlvj_q4YfWqOTq-4" edge="1">
          <mxGeometry relative="1" as="geometry" />
        </mxCell>
        <mxCell id="3WPR9Mhlvj_q4YfWqOTq-32" style="edgeStyle=orthogonalEdgeStyle;rounded=0;orthogonalLoop=1;jettySize=auto;html=1;" parent="1" source="i-C-EQaALfgo3qTTFVs5-4" target="3WPR9Mhlvj_q4YfWqOTq-17" edge="1">
          <mxGeometry relative="1" as="geometry" />
        </mxCell>
        <mxCell id="3WPR9Mhlvj_q4YfWqOTq-34" style="edgeStyle=orthogonalEdgeStyle;rounded=0;orthogonalLoop=1;jettySize=auto;html=1;" parent="1" source="i-C-EQaALfgo3qTTFVs5-4" target="3WPR9Mhlvj_q4YfWqOTq-22" edge="1">
          <mxGeometry relative="1" as="geometry">
            <mxPoint x="1100" y="650" as="targetPoint" />
          </mxGeometry>
        </mxCell>
        <mxCell id="i-C-EQaALfgo3qTTFVs5-4" value="&lt;font color=&quot;#e6e6e6&quot;&gt;ECR&lt;/font&gt;" style="sketch=0;points=[[0,0,0],[0.25,0,0],[0.5,0,0],[0.75,0,0],[1,0,0],[0,1,0],[0.25,1,0],[0.5,1,0],[0.75,1,0],[1,1,0],[0,0.25,0],[0,0.5,0],[0,0.75,0],[1,0.25,0],[1,0.5,0],[1,0.75,0]];outlineConnect=0;fontColor=#3E3E3E;fillColor=#ED7100;strokeColor=#ffffff;dashed=0;verticalLabelPosition=bottom;verticalAlign=top;align=center;html=1;fontSize=12;fontStyle=0;aspect=fixed;shape=mxgraph.aws4.resourceIcon;resIcon=mxgraph.aws4.ecr;" parent="1" vertex="1">
          <mxGeometry x="530" y="609.75" width="78" height="78" as="geometry" />
        </mxCell>
        <mxCell id="i-C-EQaALfgo3qTTFVs5-8" value="Area Administrativa&lt;br&gt;Cognito" style="outlineConnect=0;dashed=0;verticalLabelPosition=bottom;verticalAlign=top;align=center;html=1;shape=mxgraph.aws3.cognito;fillColor=#AD688B;gradientColor=none;" parent="1" vertex="1">
          <mxGeometry x="136.75" y="120" width="76.5" height="93" as="geometry" />
        </mxCell>
        <mxCell id="i-C-EQaALfgo3qTTFVs5-10" style="edgeStyle=orthogonalEdgeStyle;rounded=0;orthogonalLoop=1;jettySize=auto;html=1;entryX=0.5;entryY=1;entryDx=0;entryDy=0;entryPerimeter=0;" parent="1" source="3DmNPTJmgvK99TdIpeQO-26" target="i-C-EQaALfgo3qTTFVs5-8" edge="1">
          <mxGeometry relative="1" as="geometry" />
        </mxCell>
        <mxCell id="3WPR9Mhlvj_q4YfWqOTq-2" value="EKS" style="points=[[0,0],[0.25,0],[0.5,0],[0.75,0],[1,0],[1,0.25],[1,0.5],[1,0.75],[1,1],[0.75,1],[0.5,1],[0.25,1],[0,1],[0,0.75],[0,0.5],[0,0.25]];outlineConnect=0;gradientColor=none;html=1;whiteSpace=wrap;fontSize=12;fontStyle=0;container=1;pointerEvents=0;collapsible=0;recursiveResize=0;shape=mxgraph.aws4.group;grIcon=mxgraph.aws4.group_ec2_instance_contents;strokeColor=#D86613;fillColor=none;verticalAlign=top;align=left;spacingLeft=30;fontColor=#D86613;dashed=0;" parent="1" vertex="1">
          <mxGeometry x="730" y="70" width="190" height="380" as="geometry" />
        </mxCell>
        <mxCell id="3WPR9Mhlvj_q4YfWqOTq-3" value="" style="rounded=0;whiteSpace=wrap;html=1;dashed=1;strokeColor=#FF7F00;" parent="3WPR9Mhlvj_q4YfWqOTq-2" vertex="1">
          <mxGeometry x="29.5" y="70" width="120" height="290" as="geometry" />
        </mxCell>
        <mxCell id="3WPR9Mhlvj_q4YfWqOTq-4" value="&lt;span style=&quot;color: rgb(242, 231, 234);&quot;&gt;Pedido&amp;nbsp;&amp;nbsp;&lt;/span&gt;&lt;font color=&quot;#f2e7ea&quot;&gt;APP&lt;/font&gt;" style="sketch=0;outlineConnect=0;fontColor=#232F3E;gradientColor=none;fillColor=#ED7100;strokeColor=none;dashed=0;verticalLabelPosition=bottom;verticalAlign=top;align=center;html=1;fontSize=12;fontStyle=0;aspect=fixed;pointerEvents=1;shape=mxgraph.aws4.container_1;" parent="3WPR9Mhlvj_q4YfWqOTq-2" vertex="1">
          <mxGeometry x="65.5" y="290" width="48" height="31" as="geometry" />
        </mxCell>
        <mxCell id="3WPR9Mhlvj_q4YfWqOTq-43" value="" style="edgeStyle=orthogonalEdgeStyle;rounded=0;orthogonalLoop=1;jettySize=auto;html=1;" parent="3WPR9Mhlvj_q4YfWqOTq-2" source="3WPR9Mhlvj_q4YfWqOTq-5" target="3WPR9Mhlvj_q4YfWqOTq-6" edge="1">
          <mxGeometry relative="1" as="geometry" />
        </mxCell>
        <mxCell id="3WPR9Mhlvj_q4YfWqOTq-5" value="&lt;br&gt;&lt;span style=&quot;color: rgb(242, 231, 234); font-family: Helvetica; font-size: 12px; font-style: normal; font-variant-ligatures: normal; font-variant-caps: normal; font-weight: 400; letter-spacing: normal; orphans: 2; text-align: center; text-indent: 0px; text-transform: none; widows: 2; word-spacing: 0px; -webkit-text-stroke-width: 0px; white-space: nowrap; background-color: rgb(27, 29, 30); text-decoration-thickness: initial; text-decoration-style: initial; text-decoration-color: initial; display: inline !important; float: none;&quot;&gt;Pedido SVC&lt;/span&gt;&lt;div&gt;&lt;br/&gt;&lt;/div&gt;" style="sketch=0;outlineConnect=0;fontColor=#232F3E;gradientColor=none;fillColor=#ED7100;strokeColor=none;dashed=0;verticalLabelPosition=bottom;verticalAlign=top;align=center;html=1;fontSize=12;fontStyle=0;aspect=fixed;pointerEvents=1;shape=mxgraph.aws4.ecs_service;spacingBottom=30;" parent="3WPR9Mhlvj_q4YfWqOTq-2" vertex="1">
          <mxGeometry x="70" y="100" width="39" height="48" as="geometry" />
        </mxCell>
        <mxCell id="3WPR9Mhlvj_q4YfWqOTq-6" value="&lt;span style=&quot;color: rgb(242, 231, 234);&quot;&gt;Pedido&amp;nbsp;&lt;/span&gt;&lt;font color=&quot;#e3d8d4&quot;&gt;HPA&lt;/font&gt;" style="sketch=0;outlineConnect=0;fontColor=#232F3E;gradientColor=none;fillColor=#ED7100;strokeColor=none;dashed=0;verticalLabelPosition=bottom;verticalAlign=top;align=center;html=1;fontSize=12;fontStyle=0;aspect=fixed;pointerEvents=1;shape=mxgraph.aws4.auto_scaling2;" parent="3WPR9Mhlvj_q4YfWqOTq-2" vertex="1">
          <mxGeometry x="65.5" y="210" width="48" height="48" as="geometry" />
        </mxCell>
        <mxCell id="3WPR9Mhlvj_q4YfWqOTq-14" style="edgeStyle=orthogonalEdgeStyle;rounded=0;orthogonalLoop=1;jettySize=auto;html=1;" parent="1" source="3WPR9Mhlvj_q4YfWqOTq-4" target="3WPR9Mhlvj_q4YfWqOTq-7" edge="1">
          <mxGeometry relative="1" as="geometry" />
        </mxCell>
        <mxCell id="3WPR9Mhlvj_q4YfWqOTq-25" style="edgeStyle=orthogonalEdgeStyle;rounded=0;orthogonalLoop=1;jettySize=auto;html=1;" parent="1" source="3DmNPTJmgvK99TdIpeQO-38" target="3WPR9Mhlvj_q4YfWqOTq-5" edge="1">
          <mxGeometry relative="1" as="geometry">
            <Array as="points">
              <mxPoint x="310" y="110" />
              <mxPoint x="820" y="110" />
            </Array>
          </mxGeometry>
        </mxCell>
        <mxCell id="ggTSPxP4Z_1TptvO8F0u-7" style="edgeStyle=orthogonalEdgeStyle;rounded=0;orthogonalLoop=1;jettySize=auto;html=1;" edge="1" parent="1" source="ggTSPxP4Z_1TptvO8F0u-1" target="3WPR9Mhlvj_q4YfWqOTq-4">
          <mxGeometry relative="1" as="geometry">
            <Array as="points">
              <mxPoint x="820" y="519" />
            </Array>
          </mxGeometry>
        </mxCell>
        <mxCell id="ggTSPxP4Z_1TptvO8F0u-8" value="escuta" style="edgeLabel;html=1;align=center;verticalAlign=middle;resizable=0;points=[];" vertex="1" connectable="0" parent="ggTSPxP4Z_1TptvO8F0u-7">
          <mxGeometry x="-0.5349" y="-4" relative="1" as="geometry">
            <mxPoint as="offset" />
          </mxGeometry>
        </mxCell>
      </root>
    </mxGraphModel>
  </diagram>
</mxfile>
